<?xml version="1.0" encoding="UTF-8"?>
<svg xmlns="http://www.w3.org/2000/svg" viewBox="0 0 495 481">
  <defs>
    <style>
      .cls-1 {
        fill: #1c75bc;
      }

      .cls-1, .cls-2, .cls-3, .cls-4 {
        opacity: .6;
      }

      .cls-1, .cls-3, .cls-4, .cls-5 {
        stroke-width: 0px;
      }

      .cls-2 {
        fill: none;
        stroke: #21409a;
        stroke-linejoin: round;
        stroke-width: 4px;
      }

      .cls-3 {
        fill: #00aeef;
      }

      .cls-4, .cls-5 {
        fill: #2e3192;
      }
    </style>
  </defs>
  <g id="Layer_3" data-name="Layer 3">
    <path class="cls-4" d="M266.57,225.13c-12.48-5.66-23.29-8.33-30.81-9.7-15.69-2.86-21.57-.89-23.83,0-9.82,3.85-14.54,11.9-15.32,13.28-5.49,9.68-3.7,19.47-2.68,25.02.62,3.39,1.39,7.61,4.21,12.26,3.86,6.35,9.83,10.65,9.18,11.49-.24.31-1.19-.04-1.4-.13-11.62-4.98-34.34-26.68-32.17-63.96,1.18-20.31,7.9-29.67,14.72-34.11,5.65-3.67,11.48-4.11,14.13-4.32,14.15-1.12,26.27,7,31.79,13.28,1.31,1.5,4.06,4.94,6.55,8.27,3.11,4.16,5.18,7.3,5.75,8.13,2.8,4.14,8.23,10.58,19.87,20.49Z"/>
    <path class="cls-3" d="M268.83,237.55c4.83,2.66,5.41,4.09,10.41,7.18.89.55,6.83,4.29,10.96,5.29,12.82,3.09,32.1-11.84,36.13-29.36,1.33-5.79.92-13.73-.56-19.69-1.23-4.98-3.23-8.88-5.19-12.74-3.96-7.79,11.23,15.32-9.45,33.32s-54.26,2.43-54.26,2.43c0,0-37.79-17.23-54.89,5.11-5.22,6.82-7.42,13.42-7.72,19.5-.59,11.85,5.14,23.19,14.23,29.77,6,4.34,15.05,8.08,16.72,6,.35-.43.22-1.12-.04-2.47-2.01-10.16-2.92-14.65-1.02-16.43.56-.52,1.32-.77,1.28-1.28-.06-.74-1.72-.97-3.4-1.62-3.56-1.37-6.95-4.51-6.47-6.3.23-.86,1.33-1.26,1.62-1.36,1.82-.65,3.36.59,6.64,2.04,2.21.98,3.87,1.45,6.55,2.21,3.47.99,6.76,1.56,6.81,1.36.05-.19-2.91-.83-6.64-2.55-2.53-1.17-4.26-2.27-7.15-4.17-12.53-8.25-13.39-9.52-13.13-10.37.28-.9,1.8-1.17,2.49-1.29,5.16-.9,8.75,3.61,15.83,7.83,7.45,4.44,13.55,5.46,13.58,5.4.03-.08-8.18-2.35-15.79-9.01-2.83-2.48-7.05-6.89-6.13-8.34.84-1.32,5.59.32,7.28.89,6.33,2.17,6.64,4.39,12.21,6.81,0,0,5.23,2.27,15.23,1.74,1.23-.06,3.18-.25,4.21-1.66.16-.22.99-1.35.62-2.4-.58-1.64-3.39-1.04-8.27-4.11-.62-.39-7.29-4.58-6.59-6.41.61-1.6,7.7-.87,12.59.28,4.99,1.17,8.89,3.04,11.32,4.38Z"/>
    <path class="cls-3" d="M281.43,180.87c-4.14,1.19-10.3,3.37-17.02,7.49-7.15,4.38-13.91,8.52-14.13,14.47-.13,3.76,2.42,6.52,6.47,10.89,3.04,3.28,8.68,9.38,18.56,12.4,11.48,3.51,20.83.48,24.84-.82,4.28-1.39,6.53-2.92,8-5.11.51-.77,1.83-3.44,1.7-9.19-.27-12.19-9.6-20.15-11.91-22.13-5.95-5.08-12.34-7.12-16.51-8Z"/>
    <ellipse class="cls-1" cx="230.34" cy="156.19" rx="17.04" ry="16.51"/>
    <ellipse class="cls-1" cx="270.19" cy="160.28" rx="17.04" ry="16.51"/>
    <path class="cls-2" d="M228.97,269.55c5.78,0,18.8-9.24,18.8-9.24,0,0,13.02,9.24,18.8,9.24v13.86c0,20.03-18.8,26.19-18.8,26.19,0,0-18.8-6.16-18.8-26.19v-13.86Z"/>
    <path class="cls-3" d="M273.09,268.28l-2.89,17.87s16.43-7.15,4.17-17.87"/>
  </g>
  <g id="Layer_4" data-name="Layer 4">
    <path class="cls-5" d="M256.93,213.72c3.13,3.44,9.64,9.59,19.67,12.35,2,.55,24.24,6.37,31.55-5.88,4.87-8.16,1.44-21.54-4.34-23.39-7.02-2.25-13.02,13.95-30.49,17.51-6.62,1.35-12.46.42-16.38-.59Z"/>
    <path class="cls-5" d="M173.62,218.87c3.4-17.62,28.71-24.54,31.04-25.15,14.32-3.73,31.62-1.63,38.54,5.85.41.44,3.46,3.8,7.17,8.45,3.76,4.73,4.27,5.85,6.76,8.56,4.71,5.1,8.77,7.45,8.56,7.78-.5.8-19.91-18.16-40.85-15.32-10.68,1.45-18.67,8.16-21.32,10.6-2.89,2.66-7.94,7.31-9.96,14.94-1.15,4.34-.89,8.05-.66,11.38.25,3.67,1.2,7.5,3.09,15.17,1.03,4.16,1.37,5.08,1.78,6,2.6,5.77,6.78,8.64,6.64,8.81-.2.23-9.04-4.57-16.86-14.35-10.48-13.1-12.66-27-13.39-32.12-.73-5.09-1.1-7.63-.53-10.6Z"/>
    <path class="cls-5" d="M226.31,140.15c8.68-2.66,17.95,2.14,20.73,10.55,3.58,10.82-8.07,21.1-9.46,20.44-1.15-.55,4.53-8.71,1.85-17.52-2.11-6.92-8.43-11.1-13.12-13.47Z"/>
    <path class="cls-5" d="M260.67,147.18c7.23-5.5,17.58-4.19,23.1,2.74,7.1,8.92-.28,22.59-1.81,22.45-1.27-.12,1.24-9.74-4.32-17.08-4.37-5.77-11.75-7.5-16.97-8.11Z"/>
  </g>
</svg>